M48
; DRILL file {KiCad 7.0.10} date Mon Jan 22 13:45:34 2024
; FORMAT={-:-/ absolute / inch / decimal}
; #@! TF.CreationDate,2024-01-22T13:45:34-05:00
; #@! TF.GenerationSoftware,Kicad,Pcbnew,7.0.10
; #@! TF.FileFunction,Plated,1,2,PTH
FMAT,2
INCH
; #@! TA.AperFunction,Plated,PTH,ViaDrill
T1C0.0157
; #@! TA.AperFunction,Plated,PTH,ComponentDrill
T2C0.0276
; #@! TA.AperFunction,Plated,PTH,ComponentDrill
T3C0.0295
; #@! TA.AperFunction,Plated,PTH,ComponentDrill
T4C0.0315
; #@! TA.AperFunction,Plated,PTH,ComponentDrill
T5C0.0354
; #@! TA.AperFunction,Plated,PTH,ComponentDrill
T6C0.0394
%
G90
G05
T1
X1.8Y-2.3
X1.8Y-3.1
T2
X1.25Y-1.7
X1.35Y-1.0
X1.35Y-1.3
X1.35Y-1.5
X1.35Y-1.6
X1.35Y-2.3
X1.35Y-3.0
X1.35Y-3.9
X1.55Y-1.0
X1.55Y-1.6
X1.55Y-1.7
X1.65Y-2.3
X1.65Y-3.0
X1.65Y-3.9
T3
X1.7Y-1.05
X1.7Y-1.1
X1.7Y-1.15
X1.7Y-1.75
X1.7Y-1.8
X1.7Y-1.85
X1.7Y-2.45
X1.7Y-2.5
X1.7Y-2.55
X1.7Y-3.25
X1.7Y-3.3
X1.7Y-3.35
X2.7Y-1.05
X2.7Y-1.1
X2.7Y-1.15
X2.7Y-1.75
X2.7Y-1.8
X2.7Y-1.85
X2.7Y-2.45
X2.7Y-2.5
X2.7Y-2.55
X2.7Y-3.25
X2.7Y-3.3
X2.7Y-3.35
X3.7Y-1.0496
X3.7Y-1.0996
X3.7Y-1.1496
X3.7Y-1.75
X3.7Y-1.8
X3.7Y-1.85
X3.7Y-2.45
X3.7Y-2.5
X3.7Y-2.55
X3.7Y-3.25
X3.7Y-3.3
X3.7Y-3.35
X4.7Y-1.0496
X4.7Y-1.0996
X4.7Y-1.1496
X4.7Y-1.75
X4.7Y-1.8
X4.7Y-1.85
X4.7Y-2.45
X4.7Y-2.5
X4.7Y-2.55
X4.7Y-3.25
X4.7Y-3.3
X4.7Y-3.35
T4
X1.2Y-2.4
X1.2Y-3.2
X1.25Y-3.8
X1.5992Y-4.0006
X1.6Y-2.4
X1.6Y-3.2
X1.6Y-4.15
X1.65Y-3.8
X1.8992Y-4.0006
X1.9Y-0.9
X1.9Y-1.2
X1.9Y-1.6
X1.9Y-1.9
X1.9Y-2.3
X1.9Y-2.6
X1.9Y-3.1
X1.9Y-3.4
X1.9Y-4.15
X2.1Y-0.9
X2.1Y-1.2
X2.1Y-1.6
X2.1Y-1.9
X2.1Y-2.3
X2.1Y-2.6
X2.1Y-3.1
X2.1Y-3.4
X2.3Y-0.9
X2.3Y-1.2
X2.3Y-1.6
X2.3Y-1.9
X2.3Y-2.3
X2.3Y-2.6
X2.3Y-3.1
X2.3Y-3.4
X2.3Y-4.0006
X2.3Y-4.15
X2.5Y-0.9
X2.5Y-1.2
X2.5Y-1.6
X2.5Y-1.9
X2.5Y-2.3
X2.5Y-2.6
X2.5Y-3.1
X2.5Y-3.4
X2.6Y-4.0006
X2.6Y-4.15
X2.9Y-0.9
X2.9Y-1.2
X2.9Y-1.6
X2.9Y-1.9
X2.9Y-2.3
X2.9Y-2.6
X2.9Y-3.1
X2.9Y-3.4
X3.1Y-0.9
X3.1Y-1.2
X3.1Y-1.6
X3.1Y-1.9
X3.1Y-2.3
X3.1Y-2.6
X3.1Y-3.1
X3.1Y-3.4
X3.3Y-0.9
X3.3Y-1.2
X3.3Y-1.6
X3.3Y-1.9
X3.3Y-2.3
X3.3Y-2.6
X3.3Y-3.1
X3.3Y-3.4
X3.5Y-0.9
X3.5Y-1.2
X3.5Y-1.6
X3.5Y-1.9
X3.5Y-2.3
X3.5Y-2.6
X3.5Y-3.1
X3.5Y-3.4
X3.9Y-0.8996
X3.9Y-1.1996
X3.9Y-1.6
X3.9Y-1.9
X3.9Y-2.3
X3.9Y-2.6
X3.9Y-3.1
X3.9Y-3.4
X4.1Y-0.8996
X4.1Y-1.1996
X4.1Y-1.6
X4.1Y-1.9
X4.1Y-2.3
X4.1Y-2.6
X4.1Y-3.1
X4.1Y-3.4
X4.3Y-0.8996
X4.3Y-1.1996
X4.3Y-1.6
X4.3Y-1.9
X4.3Y-2.3
X4.3Y-2.6
X4.3Y-3.1
X4.3Y-3.4
X4.5Y-0.9
X4.5Y-1.2
X4.5Y-1.6
X4.5Y-1.9
X4.5Y-2.3004
X4.5Y-2.6004
X4.5Y-3.1
X4.5Y-3.4
X4.9Y-0.8996
X4.9Y-1.1996
X4.9Y-1.6
X4.9Y-1.9
X4.9Y-2.3
X4.9Y-2.6
X4.9Y-3.1
X4.9Y-3.4
X5.1Y-0.8996
X5.1Y-1.1996
X5.1Y-1.6
X5.1Y-1.9
X5.1Y-2.3
X5.1Y-2.6
X5.1Y-3.1
X5.1Y-3.4
X5.3Y-0.8996
X5.3Y-1.1996
X5.3Y-1.6
X5.3Y-1.9
X5.3Y-2.3
X5.3Y-2.6
X5.3Y-3.1
X5.3Y-3.4
X5.5Y-0.8996
X5.5Y-1.1996
X5.5Y-1.6
X5.5Y-1.9
X5.5Y-2.3
X5.5Y-2.6
X5.5Y-3.1
X5.5Y-3.4
T5
X1.7Y-1.35
X1.7Y-1.45
X1.7Y-2.05
X1.7Y-2.15
X1.7Y-2.75
X1.7Y-2.85
X1.7Y-3.55
X1.7Y-3.65
X1.95Y-1.35
X1.95Y-1.45
X1.95Y-2.05
X1.95Y-2.15
X1.95Y-2.75
X1.95Y-2.85
X1.95Y-3.55
X1.95Y-3.65
X2.2Y-1.35
X2.2Y-1.45
X2.2Y-2.05
X2.2Y-2.15
X2.2Y-2.75
X2.2Y-2.85
X2.2Y-3.55
X2.2Y-3.65
X2.45Y-1.35
X2.45Y-1.45
X2.45Y-2.05
X2.45Y-2.15
X2.45Y-2.75
X2.45Y-2.85
X2.45Y-3.55
X2.45Y-3.65
X2.7Y-1.35
X2.7Y-1.45
X2.7Y-2.05
X2.7Y-2.15
X2.7Y-2.75
X2.7Y-2.85
X2.7Y-3.55
X2.7Y-3.65
X2.95Y-1.35
X2.95Y-1.45
X2.95Y-2.05
X2.95Y-2.15
X2.95Y-2.75
X2.95Y-2.85
X2.95Y-3.55
X2.95Y-3.65
X3.2Y-1.35
X3.2Y-1.45
X3.2Y-2.05
X3.2Y-2.15
X3.2Y-2.75
X3.2Y-2.85
X3.2Y-3.55
X3.2Y-3.65
X3.45Y-1.35
X3.45Y-1.45
X3.45Y-2.05
X3.45Y-2.15
X3.45Y-2.75
X3.45Y-2.85
X3.45Y-3.55
X3.45Y-3.65
X3.7Y-1.35
X3.7Y-1.45
X3.7Y-2.05
X3.7Y-2.15
X3.7Y-2.75
X3.7Y-2.85
X3.7Y-3.55
X3.7Y-3.65
X3.95Y-1.35
X3.95Y-1.45
X3.95Y-2.05
X3.95Y-2.15
X3.95Y-2.75
X3.95Y-2.85
X3.95Y-3.55
X3.95Y-3.65
X4.2Y-1.35
X4.2Y-1.45
X4.2Y-2.05
X4.2Y-2.15
X4.2Y-2.75
X4.2Y-2.85
X4.2Y-3.55
X4.2Y-3.65
X4.45Y-1.35
X4.45Y-1.45
X4.45Y-2.05
X4.45Y-2.15
X4.45Y-2.75
X4.45Y-2.85
X4.45Y-3.55
X4.45Y-3.65
X4.7Y-1.35
X4.7Y-1.45
X4.7Y-2.05
X4.7Y-2.15
X4.7Y-2.75
X4.7Y-2.85
X4.7Y-3.55
X4.7Y-3.65
X4.95Y-1.35
X4.95Y-1.45
X4.95Y-2.05
X4.95Y-2.15
X4.95Y-2.75
X4.95Y-2.85
X4.95Y-3.55
X4.95Y-3.65
X5.2Y-1.35
X5.2Y-1.45
X5.2Y-2.05
X5.2Y-2.15
X5.2Y-2.75
X5.2Y-2.85
X5.2Y-3.55
X5.2Y-3.65
X5.45Y-1.35
X5.45Y-1.45
X5.45Y-2.05
X5.45Y-2.15
X5.45Y-2.75
X5.45Y-2.85
X5.45Y-3.55
X5.45Y-3.65
T6
X2.05Y-3.9506
X2.05Y-4.0506
X2.05Y-4.1506
X2.15Y-3.9506
X2.15Y-4.0506
X2.15Y-4.1506
M30
