%TF.GenerationSoftware,KiCad,Pcbnew,7.0.10*%
%TF.CreationDate,2024-01-22T13:45:31-05:00*%
%TF.ProjectId,LED_array,4c45445f-6172-4726-9179-2e6b69636164,rev?*%
%TF.SameCoordinates,Original*%
%TF.FileFunction,Copper,L2,Bot*%
%TF.FilePolarity,Positive*%
%FSLAX46Y46*%
G04 Gerber Fmt 4.6, Leading zero omitted, Abs format (unit mm)*
G04 Created by KiCad (PCBNEW 7.0.10) date 2024-01-22 13:45:31*
%MOMM*%
%LPD*%
G01*
G04 APERTURE LIST*
%TA.AperFunction,ComponentPad*%
%ADD10O,1.400000X1.400000*%
%TD*%
%TA.AperFunction,ComponentPad*%
%ADD11C,1.400000*%
%TD*%
%TA.AperFunction,ComponentPad*%
%ADD12C,1.600000*%
%TD*%
%TA.AperFunction,ComponentPad*%
%ADD13O,1.600000X1.600000*%
%TD*%
%TA.AperFunction,ComponentPad*%
%ADD14R,1.800000X1.800000*%
%TD*%
%TA.AperFunction,ComponentPad*%
%ADD15C,1.800000*%
%TD*%
%TA.AperFunction,ComponentPad*%
%ADD16R,1.500000X1.050000*%
%TD*%
%TA.AperFunction,ComponentPad*%
%ADD17O,1.500000X1.050000*%
%TD*%
%TA.AperFunction,ComponentPad*%
%ADD18R,1.700000X1.700000*%
%TD*%
%TA.AperFunction,ComponentPad*%
%ADD19O,1.700000X1.700000*%
%TD*%
%TA.AperFunction,ViaPad*%
%ADD20C,0.800000*%
%TD*%
%TA.AperFunction,Conductor*%
%ADD21C,1.000000*%
%TD*%
G04 APERTURE END LIST*
D10*
%TO.P,R9,2*%
%TO.N,3.3V_3*%
X41910000Y-76200000D03*
D11*
%TO.P,R9,1*%
%TO.N,3.3V*%
X34290000Y-76200000D03*
%TD*%
%TO.P,R6,1*%
%TO.N,3.3V*%
X34290000Y-40640000D03*
D10*
%TO.P,R6,2*%
%TO.N,3.3V_2*%
X39370000Y-40640000D03*
%TD*%
D12*
%TO.P,R10,1*%
%TO.N,GND2*%
X31750000Y-96520000D03*
D13*
%TO.P,R10,2*%
%TO.N,Net-(J1-Pin_1)*%
X41910000Y-96520000D03*
%TD*%
D12*
%TO.P,R14,1*%
%TO.N,GND*%
X40640000Y-81280000D03*
D13*
%TO.P,R14,2*%
%TO.N,GND2*%
X30480000Y-81280000D03*
%TD*%
D12*
%TO.P,R13,1*%
%TO.N,GND*%
X40640000Y-60960000D03*
D13*
%TO.P,R13,2*%
%TO.N,GND2*%
X30480000Y-60960000D03*
%TD*%
D10*
%TO.P,R12,2*%
%TO.N,GND2*%
X31750000Y-43180000D03*
D11*
%TO.P,R12,1*%
%TO.N,GND*%
X39370000Y-43180000D03*
%TD*%
%TO.P,R11,1*%
%TO.N,GND*%
X39370000Y-25400000D03*
D10*
%TO.P,R11,2*%
%TO.N,GND2*%
X34290000Y-25400000D03*
%TD*%
D11*
%TO.P,R7,1*%
%TO.N,3.3V*%
X34290000Y-58420000D03*
D10*
%TO.P,R7,2*%
%TO.N,3.3V_3*%
X41910000Y-58420000D03*
%TD*%
D11*
%TO.P,R5,1*%
%TO.N,3.3V*%
X34290000Y-38100000D03*
D10*
%TO.P,R5,2*%
%TO.N,3.3V_1*%
X34290000Y-33020000D03*
%TD*%
%TO.P,R8,2*%
%TO.N,3.3V*%
X34290000Y-99060000D03*
D11*
%TO.P,R8,1*%
%TO.N,Net-(J1-Pin_2)*%
X41910000Y-99060000D03*
%TD*%
D12*
%TO.P,R2,1*%
%TO.N,Net-(J1-Pin_6)*%
X48260000Y-105410000D03*
D13*
%TO.P,R2,2*%
%TO.N,PWM2*%
X40640000Y-105410000D03*
%TD*%
%TO.P,R1103,1*%
%TO.N,3.3V_2*%
X134620000Y-40640000D03*
%TO.P,R1103,2*%
%TO.N,Net-(D1103-A)*%
X134620000Y-48260000D03*
%TD*%
D12*
%TO.P,R1,1*%
%TO.N,PWM1*%
X66040000Y-105410000D03*
D13*
%TO.P,R1,2*%
%TO.N,Net-(J1-Pin_5)*%
X58420000Y-105410000D03*
%TD*%
%TO.P,R801,1*%
%TO.N,3.3V_2*%
X48260000Y-40640000D03*
%TO.P,R801,2*%
%TO.N,Net-(D801-A)*%
X48260000Y-48260000D03*
%TD*%
%TO.P,R901,1*%
%TO.N,3.3V_2*%
X73660000Y-40640000D03*
%TO.P,R901,2*%
%TO.N,Net-(D901-A)*%
X73660000Y-48260000D03*
%TD*%
D14*
%TO.P,D504,1,K*%
%TO.N,Net-(D501-K)*%
X113030000Y-36830000D03*
D15*
%TO.P,D504,2,A*%
%TO.N,Net-(D504-A)*%
X113030000Y-34290000D03*
%TD*%
D13*
%TO.P,R1602,1*%
%TO.N,3.3V_3*%
X109220000Y-78740000D03*
%TO.P,R1602,2*%
%TO.N,Net-(D1602-A)*%
X109220000Y-86360000D03*
%TD*%
%TO.P,R1803,1*%
%TO.N,3.3V_3*%
X78740000Y-58420000D03*
%TO.P,R1803,2*%
%TO.N,Net-(D1803-A)*%
X78740000Y-66040000D03*
%TD*%
D14*
%TO.P,D1504,1,K*%
%TO.N,Net-(D1501-K)*%
X81280000Y-92710000D03*
D15*
%TO.P,D1504,2,A*%
%TO.N,Net-(D1504-A)*%
X81280000Y-90170000D03*
%TD*%
D13*
%TO.P,R1403,1*%
%TO.N,3.3V_3*%
X124460000Y-58420000D03*
%TO.P,R1403,2*%
%TO.N,Net-(D1403-A)*%
X124460000Y-66040000D03*
%TD*%
D14*
%TO.P,D1004,1,K*%
%TO.N,Net-(D1001-K)*%
X113030000Y-54610000D03*
D15*
%TO.P,D1004,2,A*%
%TO.N,Net-(D1004-A)*%
X113030000Y-52070000D03*
%TD*%
D13*
%TO.P,R1003,1*%
%TO.N,3.3V_2*%
X109220000Y-40640000D03*
%TO.P,R1003,2*%
%TO.N,Net-(D1003-A)*%
X109220000Y-48260000D03*
%TD*%
%TO.P,R1802,1*%
%TO.N,3.3V_3*%
X63500000Y-58420000D03*
%TO.P,R1802,2*%
%TO.N,Net-(D1802-A)*%
X63500000Y-66040000D03*
%TD*%
%TO.P,R2003,1*%
%TO.N,3.3V_3*%
X78740000Y-78740000D03*
%TO.P,R2003,2*%
%TO.N,Net-(D2003-A)*%
X78740000Y-86360000D03*
%TD*%
D14*
%TO.P,D404,1,K*%
%TO.N,Net-(D401-K)*%
X87630000Y-36830000D03*
D15*
%TO.P,D404,2,A*%
%TO.N,Net-(D404-A)*%
X87630000Y-34290000D03*
%TD*%
D14*
%TO.P,D1302,1,K*%
%TO.N,Net-(D1301-K)*%
X55880000Y-72390000D03*
D15*
%TO.P,D1302,2,A*%
%TO.N,Net-(D1302-A)*%
X55880000Y-69850000D03*
%TD*%
D14*
%TO.P,D1603,1,K*%
%TO.N,Net-(D1601-K)*%
X119380000Y-92710000D03*
D15*
%TO.P,D1603,2,A*%
%TO.N,Net-(D1603-A)*%
X119380000Y-90170000D03*
%TD*%
D14*
%TO.P,D802,1,K*%
%TO.N,Net-(D801-K)*%
X49530000Y-54610000D03*
D15*
%TO.P,D802,2,A*%
%TO.N,Net-(D802-A)*%
X49530000Y-52070000D03*
%TD*%
D14*
%TO.P,D804,1,K*%
%TO.N,Net-(D801-K)*%
X62230000Y-54610000D03*
D15*
%TO.P,D804,2,A*%
%TO.N,Net-(D804-A)*%
X62230000Y-52070000D03*
%TD*%
D14*
%TO.P,D1904,1,K*%
%TO.N,Net-(D1901-K)*%
X138430000Y-72390000D03*
D15*
%TO.P,D1904,2,A*%
%TO.N,Net-(D1904-A)*%
X138430000Y-69850000D03*
%TD*%
D13*
%TO.P,R903,1*%
%TO.N,3.3V_2*%
X83820000Y-40640000D03*
%TO.P,R903,2*%
%TO.N,Net-(D903-A)*%
X83820000Y-48260000D03*
%TD*%
%TO.P,R503,1*%
%TO.N,3.3V_1*%
X109220000Y-22850000D03*
%TO.P,R503,2*%
%TO.N,Net-(D503-A)*%
X109220000Y-30470000D03*
%TD*%
%TO.P,R1902,1*%
%TO.N,3.3V_3*%
X114300000Y-58430000D03*
%TO.P,R1902,2*%
%TO.N,Net-(D1902-A)*%
X114300000Y-66050000D03*
%TD*%
%TO.P,R1804,1*%
%TO.N,3.3V_3*%
X88900000Y-58420000D03*
%TO.P,R1804,2*%
%TO.N,Net-(D1804-A)*%
X88900000Y-66040000D03*
%TD*%
%TO.P,R303,1*%
%TO.N,3.3V_1*%
X58420000Y-22860000D03*
%TO.P,R303,2*%
%TO.N,Net-(D303-A)*%
X58420000Y-30480000D03*
%TD*%
D16*
%TO.P,Q1801,1,E*%
%TO.N,GND*%
X119380000Y-62230000D03*
D17*
%TO.P,Q1801,2,B*%
%TO.N,PWM4*%
X119380000Y-63500000D03*
%TO.P,Q1801,3,C*%
%TO.N,Net-(D1801-K)*%
X119380000Y-64770000D03*
%TD*%
D13*
%TO.P,R1303,1*%
%TO.N,3.3V_3*%
X73660000Y-58420000D03*
%TO.P,R1303,2*%
%TO.N,Net-(D1303-A)*%
X73660000Y-66040000D03*
%TD*%
D12*
%TO.P,R4,1*%
%TO.N,Net-(J1-Pin_3)*%
X58420000Y-101615000D03*
D13*
%TO.P,R4,2*%
%TO.N,PWM4*%
X66040000Y-101615000D03*
%TD*%
%TO.P,R301,1*%
%TO.N,3.3V_1*%
X48260000Y-22860000D03*
%TO.P,R301,2*%
%TO.N,Net-(D301-A)*%
X48260000Y-30480000D03*
%TD*%
D14*
%TO.P,D302,1,K*%
%TO.N,Net-(D301-K)*%
X49530000Y-36830000D03*
D15*
%TO.P,D302,2,A*%
%TO.N,Net-(D302-A)*%
X49530000Y-34290000D03*
%TD*%
D14*
%TO.P,D1804,1,K*%
%TO.N,Net-(D1801-K)*%
X87630000Y-72390000D03*
D15*
%TO.P,D1804,2,A*%
%TO.N,Net-(D1804-A)*%
X87630000Y-69850000D03*
%TD*%
D13*
%TO.P,R304,1*%
%TO.N,3.3V_1*%
X63500000Y-22860000D03*
%TO.P,R304,2*%
%TO.N,Net-(D304-A)*%
X63500000Y-30480000D03*
%TD*%
%TO.P,R1903,1*%
%TO.N,3.3V_3*%
X129540000Y-58420000D03*
%TO.P,R1903,2*%
%TO.N,Net-(D1903-A)*%
X129540000Y-66040000D03*
%TD*%
D14*
%TO.P,D1102,1,K*%
%TO.N,Net-(D1101-K)*%
X125730000Y-54610000D03*
D15*
%TO.P,D1102,2,A*%
%TO.N,Net-(D1102-A)*%
X125730000Y-52070000D03*
%TD*%
D13*
%TO.P,R804,1*%
%TO.N,3.3V_2*%
X63500000Y-40640000D03*
%TO.P,R804,2*%
%TO.N,Net-(D804-A)*%
X63500000Y-48260000D03*
%TD*%
%TO.P,R1601,1*%
%TO.N,3.3V_3*%
X99060000Y-78740000D03*
%TO.P,R1601,2*%
%TO.N,Net-(D1601-A)*%
X99060000Y-86360000D03*
%TD*%
%TO.P,R1304,1*%
%TO.N,3.3V_3*%
X83820000Y-58420000D03*
%TO.P,R1304,2*%
%TO.N,Net-(D1304-A)*%
X83820000Y-66040000D03*
%TD*%
D14*
%TO.P,D304,1,K*%
%TO.N,Net-(D301-K)*%
X62230000Y-36830000D03*
D15*
%TO.P,D304,2,A*%
%TO.N,Net-(D304-A)*%
X62230000Y-34290000D03*
%TD*%
D13*
%TO.P,R1002,1*%
%TO.N,3.3V_2*%
X104140000Y-40640000D03*
%TO.P,R1002,2*%
%TO.N,Net-(D1002-A)*%
X104140000Y-48260000D03*
%TD*%
D14*
%TO.P,D601,1,K*%
%TO.N,Net-(D601-K)*%
X119380000Y-36830000D03*
D15*
%TO.P,D601,2,A*%
%TO.N,Net-(D601-A)*%
X119380000Y-34290000D03*
%TD*%
D13*
%TO.P,R1302,1*%
%TO.N,3.3V_3*%
X58420000Y-58420000D03*
%TO.P,R1302,2*%
%TO.N,Net-(D1302-A)*%
X58420000Y-66040000D03*
%TD*%
D14*
%TO.P,D904,1,K*%
%TO.N,Net-(D901-K)*%
X87630000Y-54610000D03*
D15*
%TO.P,D904,2,A*%
%TO.N,Net-(D904-A)*%
X87630000Y-52070000D03*
%TD*%
D16*
%TO.P,Q901,1,E*%
%TO.N,GND*%
X68580000Y-44450000D03*
D17*
%TO.P,Q901,2,B*%
%TO.N,PWM2*%
X68580000Y-45720000D03*
%TO.P,Q901,3,C*%
%TO.N,Net-(D901-K)*%
X68580000Y-46990000D03*
%TD*%
D14*
%TO.P,D2003,1,K*%
%TO.N,Net-(D2001-K)*%
X74930000Y-92710000D03*
D15*
%TO.P,D2003,2,A*%
%TO.N,Net-(D2003-A)*%
X74930000Y-90170000D03*
%TD*%
D13*
%TO.P,R904,1*%
%TO.N,3.3V_2*%
X88900000Y-40640000D03*
%TO.P,R904,2*%
%TO.N,Net-(D904-A)*%
X88900000Y-48260000D03*
%TD*%
%TO.P,R403,1*%
%TO.N,3.3V_1*%
X83820000Y-22860000D03*
%TO.P,R403,2*%
%TO.N,Net-(D403-A)*%
X83820000Y-30480000D03*
%TD*%
%TO.P,R1102,1*%
%TO.N,3.3V_2*%
X129540000Y-40640000D03*
%TO.P,R1102,2*%
%TO.N,Net-(D1102-A)*%
X129540000Y-48260000D03*
%TD*%
D14*
%TO.P,D1803,1,K*%
%TO.N,Net-(D1801-K)*%
X74930000Y-72390000D03*
D15*
%TO.P,D1803,2,A*%
%TO.N,Net-(D1803-A)*%
X74930000Y-69850000D03*
%TD*%
D14*
%TO.P,D1101,1,K*%
%TO.N,Net-(D1101-K)*%
X119380000Y-54610000D03*
D15*
%TO.P,D1101,2,A*%
%TO.N,Net-(D1101-A)*%
X119380000Y-52070000D03*
%TD*%
D14*
%TO.P,D401,1,K*%
%TO.N,Net-(D401-K)*%
X68580000Y-36830000D03*
D15*
%TO.P,D401,2,A*%
%TO.N,Net-(D401-A)*%
X68580000Y-34290000D03*
%TD*%
D13*
%TO.P,R1301,1*%
%TO.N,3.3V_3*%
X48260000Y-58420000D03*
%TO.P,R1301,2*%
%TO.N,Net-(D1301-A)*%
X48260000Y-66040000D03*
%TD*%
%TO.P,R601,1*%
%TO.N,3.3V_1*%
X124460000Y-22850000D03*
%TO.P,R601,2*%
%TO.N,Net-(D601-A)*%
X124460000Y-30470000D03*
%TD*%
D14*
%TO.P,D801,1,K*%
%TO.N,Net-(D801-K)*%
X43180000Y-54610000D03*
D15*
%TO.P,D801,2,A*%
%TO.N,Net-(D801-A)*%
X43180000Y-52070000D03*
%TD*%
D13*
%TO.P,R1503,1*%
%TO.N,3.3V_3*%
X73660000Y-78740000D03*
%TO.P,R1503,2*%
%TO.N,Net-(D1503-A)*%
X73660000Y-86360000D03*
%TD*%
D16*
%TO.P,Q501,1,E*%
%TO.N,GND*%
X93980000Y-26660000D03*
D17*
%TO.P,Q501,2,B*%
%TO.N,PWM1*%
X93980000Y-27930000D03*
%TO.P,Q501,3,C*%
%TO.N,Net-(D501-K)*%
X93980000Y-29200000D03*
%TD*%
D16*
%TO.P,Q801,1,E*%
%TO.N,GND*%
X43180000Y-44450000D03*
D17*
%TO.P,Q801,2,B*%
%TO.N,PWM2*%
X43180000Y-45720000D03*
%TO.P,Q801,3,C*%
%TO.N,Net-(D801-K)*%
X43180000Y-46990000D03*
%TD*%
D12*
%TO.P,R3,1*%
%TO.N,PWM3*%
X40620000Y-101615000D03*
D13*
%TO.P,R3,2*%
%TO.N,Net-(J1-Pin_4)*%
X48240000Y-101615000D03*
%TD*%
D14*
%TO.P,D2103,1,K*%
%TO.N,Net-(D2101-K)*%
X125730000Y-92710000D03*
D15*
%TO.P,D2103,2,A*%
%TO.N,Net-(D2103-A)*%
X125730000Y-90170000D03*
%TD*%
D13*
%TO.P,R2101,1*%
%TO.N,3.3V_3*%
X104140000Y-78740000D03*
%TO.P,R2101,2*%
%TO.N,Net-(D2101-A)*%
X104140000Y-86360000D03*
%TD*%
D16*
%TO.P,Q1401,1,E*%
%TO.N,GND*%
X68580000Y-62230000D03*
D17*
%TO.P,Q1401,2,B*%
%TO.N,PWM3*%
X68580000Y-63500000D03*
%TO.P,Q1401,3,C*%
%TO.N,Net-(D1401-K)*%
X68580000Y-64770000D03*
%TD*%
D14*
%TO.P,D403,1,K*%
%TO.N,Net-(D401-K)*%
X81280000Y-36830000D03*
D15*
%TO.P,D403,2,A*%
%TO.N,Net-(D403-A)*%
X81280000Y-34290000D03*
%TD*%
D16*
%TO.P,Q301,1,E*%
%TO.N,GND*%
X43180000Y-26670000D03*
D17*
%TO.P,Q301,2,B*%
%TO.N,PWM1*%
X43180000Y-27940000D03*
%TO.P,Q301,3,C*%
%TO.N,Net-(D301-K)*%
X43180000Y-29210000D03*
%TD*%
D14*
%TO.P,D2002,1,K*%
%TO.N,Net-(D2001-K)*%
X62230000Y-92710000D03*
D15*
%TO.P,D2002,2,A*%
%TO.N,Net-(D2002-A)*%
X62230000Y-90170000D03*
%TD*%
D14*
%TO.P,D303,1,K*%
%TO.N,Net-(D301-K)*%
X55880000Y-36830000D03*
D15*
%TO.P,D303,2,A*%
%TO.N,Net-(D303-A)*%
X55880000Y-34290000D03*
%TD*%
D14*
%TO.P,D1304,1,K*%
%TO.N,Net-(D1301-K)*%
X81280000Y-72390000D03*
D15*
%TO.P,D1304,2,A*%
%TO.N,Net-(D1304-A)*%
X81280000Y-69850000D03*
%TD*%
D14*
%TO.P,D1903,1,K*%
%TO.N,Net-(D1901-K)*%
X125730000Y-72390000D03*
D15*
%TO.P,D1903,2,A*%
%TO.N,Net-(D1903-A)*%
X125730000Y-69850000D03*
%TD*%
D13*
%TO.P,R603,1*%
%TO.N,3.3V_1*%
X134620000Y-22850000D03*
%TO.P,R603,2*%
%TO.N,Net-(D603-A)*%
X134620000Y-30470000D03*
%TD*%
D14*
%TO.P,D1802,1,K*%
%TO.N,Net-(D1801-K)*%
X62230000Y-72390000D03*
D15*
%TO.P,D1802,2,A*%
%TO.N,Net-(D1802-A)*%
X62230000Y-69850000D03*
%TD*%
D14*
%TO.P,D903,1,K*%
%TO.N,Net-(D901-K)*%
X81280000Y-54610000D03*
D15*
%TO.P,D903,2,A*%
%TO.N,Net-(D903-A)*%
X81280000Y-52070000D03*
%TD*%
D14*
%TO.P,D1801,1,K*%
%TO.N,Net-(D1801-K)*%
X49530000Y-72390000D03*
D15*
%TO.P,D1801,2,A*%
%TO.N,Net-(D1801-A)*%
X49530000Y-69850000D03*
%TD*%
D14*
%TO.P,D603,1,K*%
%TO.N,Net-(D601-K)*%
X132080000Y-36830000D03*
D15*
%TO.P,D603,2,A*%
%TO.N,Net-(D603-A)*%
X132080000Y-34290000D03*
%TD*%
D14*
%TO.P,D1403,1,K*%
%TO.N,Net-(D1401-K)*%
X119380000Y-72390000D03*
D15*
%TO.P,D1403,2,A*%
%TO.N,Net-(D1403-A)*%
X119380000Y-69850000D03*
%TD*%
D13*
%TO.P,R401,1*%
%TO.N,3.3V_1*%
X73660000Y-22860000D03*
%TO.P,R401,2*%
%TO.N,Net-(D401-A)*%
X73660000Y-30480000D03*
%TD*%
D14*
%TO.P,D1303,1,K*%
%TO.N,Net-(D1301-K)*%
X68580000Y-72390000D03*
D15*
%TO.P,D1303,2,A*%
%TO.N,Net-(D1303-A)*%
X68580000Y-69850000D03*
%TD*%
D14*
%TO.P,D2101,1,K*%
%TO.N,Net-(D2101-K)*%
X100330000Y-92710000D03*
D15*
%TO.P,D2101,2,A*%
%TO.N,Net-(D2101-A)*%
X100330000Y-90170000D03*
%TD*%
D13*
%TO.P,R404,1*%
%TO.N,3.3V_1*%
X88900000Y-22860000D03*
%TO.P,R404,2*%
%TO.N,Net-(D404-A)*%
X88900000Y-30480000D03*
%TD*%
D16*
%TO.P,Q601,1,E*%
%TO.N,GND*%
X119380000Y-26660000D03*
D17*
%TO.P,Q601,2,B*%
%TO.N,PWM1*%
X119380000Y-27930000D03*
%TO.P,Q601,3,C*%
%TO.N,Net-(D601-K)*%
X119380000Y-29200000D03*
%TD*%
D13*
%TO.P,R604,1*%
%TO.N,3.3V_1*%
X139700000Y-22850000D03*
%TO.P,R604,2*%
%TO.N,Net-(D604-A)*%
X139700000Y-30470000D03*
%TD*%
D16*
%TO.P,Q1101,1,E*%
%TO.N,GND*%
X119380000Y-44450000D03*
D17*
%TO.P,Q1101,2,B*%
%TO.N,PWM2*%
X119380000Y-45720000D03*
%TO.P,Q1101,3,C*%
%TO.N,Net-(D1101-K)*%
X119380000Y-46990000D03*
%TD*%
D13*
%TO.P,R302,1*%
%TO.N,3.3V_1*%
X53340000Y-22860000D03*
%TO.P,R302,2*%
%TO.N,Net-(D302-A)*%
X53340000Y-30480000D03*
%TD*%
D14*
%TO.P,D1501,1,K*%
%TO.N,Net-(D1501-K)*%
X43180000Y-92710000D03*
D15*
%TO.P,D1501,2,A*%
%TO.N,Net-(D1501-A)*%
X43180000Y-90170000D03*
%TD*%
D14*
%TO.P,D1502,1,K*%
%TO.N,Net-(D1501-K)*%
X55880000Y-92710000D03*
D15*
%TO.P,D1502,2,A*%
%TO.N,Net-(D1502-A)*%
X55880000Y-90170000D03*
%TD*%
D13*
%TO.P,R1801,1*%
%TO.N,3.3V_3*%
X53340000Y-58420000D03*
%TO.P,R1801,2*%
%TO.N,Net-(D1801-A)*%
X53340000Y-66040000D03*
%TD*%
D14*
%TO.P,D301,1,K*%
%TO.N,Net-(D301-K)*%
X43180000Y-36830000D03*
D15*
%TO.P,D301,2,A*%
%TO.N,Net-(D301-A)*%
X43180000Y-34290000D03*
%TD*%
D14*
%TO.P,D604,1,K*%
%TO.N,Net-(D601-K)*%
X138430000Y-36830000D03*
D15*
%TO.P,D604,2,A*%
%TO.N,Net-(D604-A)*%
X138430000Y-34290000D03*
%TD*%
D14*
%TO.P,D1301,1,K*%
%TO.N,Net-(D1301-K)*%
X43180000Y-72390000D03*
D15*
%TO.P,D1301,2,A*%
%TO.N,Net-(D1301-A)*%
X43180000Y-69850000D03*
%TD*%
D14*
%TO.P,D503,1,K*%
%TO.N,Net-(D501-K)*%
X106680000Y-36830000D03*
D15*
%TO.P,D503,2,A*%
%TO.N,Net-(D503-A)*%
X106680000Y-34290000D03*
%TD*%
D13*
%TO.P,R1104,1*%
%TO.N,3.3V_2*%
X139700000Y-40640000D03*
%TO.P,R1104,2*%
%TO.N,Net-(D1104-A)*%
X139700000Y-48260000D03*
%TD*%
D14*
%TO.P,D803,1,K*%
%TO.N,Net-(D801-K)*%
X55880000Y-54610000D03*
D15*
%TO.P,D803,2,A*%
%TO.N,Net-(D803-A)*%
X55880000Y-52070000D03*
%TD*%
D14*
%TO.P,D1002,1,K*%
%TO.N,Net-(D1001-K)*%
X100330000Y-54610000D03*
D15*
%TO.P,D1002,2,A*%
%TO.N,Net-(D1002-A)*%
X100330000Y-52070000D03*
%TD*%
D14*
%TO.P,D1003,1,K*%
%TO.N,Net-(D1001-K)*%
X106680000Y-54610000D03*
D15*
%TO.P,D1003,2,A*%
%TO.N,Net-(D1003-A)*%
X106680000Y-52070000D03*
%TD*%
D14*
%TO.P,D602,1,K*%
%TO.N,Net-(D601-K)*%
X125730000Y-36830000D03*
D15*
%TO.P,D602,2,A*%
%TO.N,Net-(D602-A)*%
X125730000Y-34290000D03*
%TD*%
D14*
%TO.P,D1602,1,K*%
%TO.N,Net-(D1601-K)*%
X106680000Y-92710000D03*
D15*
%TO.P,D1602,2,A*%
%TO.N,Net-(D1602-A)*%
X106680000Y-90170000D03*
%TD*%
D13*
%TO.P,R1504,1*%
%TO.N,3.3V_3*%
X83820000Y-78740000D03*
%TO.P,R1504,2*%
%TO.N,Net-(D1504-A)*%
X83820000Y-86360000D03*
%TD*%
%TO.P,R1004,1*%
%TO.N,3.3V_2*%
X114300000Y-40640000D03*
%TO.P,R1004,2*%
%TO.N,Net-(D1004-A)*%
X114300000Y-48260000D03*
%TD*%
%TO.P,R1402,1*%
%TO.N,3.3V_3*%
X109220000Y-58420000D03*
%TO.P,R1402,2*%
%TO.N,Net-(D1402-A)*%
X109220000Y-66040000D03*
%TD*%
D14*
%TO.P,D1402,1,K*%
%TO.N,Net-(D1401-K)*%
X106680000Y-72390000D03*
D15*
%TO.P,D1402,2,A*%
%TO.N,Net-(D1402-A)*%
X106680000Y-69850000D03*
%TD*%
D16*
%TO.P,Q401,1,E*%
%TO.N,GND*%
X68580000Y-26670000D03*
D17*
%TO.P,Q401,2,B*%
%TO.N,PWM1*%
X68580000Y-27940000D03*
%TO.P,Q401,3,C*%
%TO.N,Net-(D401-K)*%
X68580000Y-29210000D03*
%TD*%
D18*
%TO.P,J1,1,Pin_1*%
%TO.N,Net-(J1-Pin_1)*%
X54610000Y-100345000D03*
D19*
%TO.P,J1,2,Pin_2*%
%TO.N,Net-(J1-Pin_2)*%
X52070000Y-100345000D03*
%TO.P,J1,3,Pin_3*%
%TO.N,Net-(J1-Pin_3)*%
X54610000Y-102885000D03*
%TO.P,J1,4,Pin_4*%
%TO.N,Net-(J1-Pin_4)*%
X52070000Y-102885000D03*
%TO.P,J1,5,Pin_5*%
%TO.N,Net-(J1-Pin_5)*%
X54610000Y-105425000D03*
%TO.P,J1,6,Pin_6*%
%TO.N,Net-(J1-Pin_6)*%
X52070000Y-105425000D03*
%TD*%
D14*
%TO.P,D1901,1,K*%
%TO.N,Net-(D1901-K)*%
X100330000Y-72390000D03*
D15*
%TO.P,D1901,2,A*%
%TO.N,Net-(D1901-A)*%
X100330000Y-69850000D03*
%TD*%
D14*
%TO.P,D1001,1,K*%
%TO.N,Net-(D1001-K)*%
X93980000Y-54610000D03*
D15*
%TO.P,D1001,2,A*%
%TO.N,Net-(D1001-A)*%
X93980000Y-52070000D03*
%TD*%
D13*
%TO.P,R602,1*%
%TO.N,3.3V_1*%
X129540000Y-22850000D03*
%TO.P,R602,2*%
%TO.N,Net-(D602-A)*%
X129540000Y-30470000D03*
%TD*%
D14*
%TO.P,D2104,1,K*%
%TO.N,Net-(D2101-K)*%
X138430000Y-92710000D03*
D15*
%TO.P,D2104,2,A*%
%TO.N,Net-(D2104-A)*%
X138430000Y-90170000D03*
%TD*%
D13*
%TO.P,R504,1*%
%TO.N,3.3V_1*%
X114300000Y-22860000D03*
%TO.P,R504,2*%
%TO.N,Net-(D504-A)*%
X114300000Y-30480000D03*
%TD*%
D14*
%TO.P,D2004,1,K*%
%TO.N,Net-(D2001-K)*%
X87630000Y-92710000D03*
D15*
%TO.P,D2004,2,A*%
%TO.N,Net-(D2004-A)*%
X87630000Y-90170000D03*
%TD*%
D13*
%TO.P,R2004,1*%
%TO.N,3.3V_3*%
X88900000Y-78740000D03*
%TO.P,R2004,2*%
%TO.N,Net-(D2004-A)*%
X88900000Y-86360000D03*
%TD*%
%TO.P,R2103,1*%
%TO.N,3.3V_3*%
X129540000Y-78740000D03*
%TO.P,R2103,2*%
%TO.N,Net-(D2103-A)*%
X129540000Y-86360000D03*
%TD*%
D14*
%TO.P,D2001,1,K*%
%TO.N,Net-(D2001-K)*%
X49530000Y-92710000D03*
D15*
%TO.P,D2001,2,A*%
%TO.N,Net-(D2001-A)*%
X49530000Y-90170000D03*
%TD*%
D13*
%TO.P,R1502,1*%
%TO.N,3.3V_3*%
X58420000Y-78740000D03*
%TO.P,R1502,2*%
%TO.N,Net-(D1502-A)*%
X58420000Y-86360000D03*
%TD*%
D14*
%TO.P,D2102,1,K*%
%TO.N,Net-(D2101-K)*%
X113030000Y-92710000D03*
D15*
%TO.P,D2102,2,A*%
%TO.N,Net-(D2102-A)*%
X113030000Y-90170000D03*
%TD*%
D14*
%TO.P,D1401,1,K*%
%TO.N,Net-(D1401-K)*%
X93980000Y-72390000D03*
D15*
%TO.P,D1401,2,A*%
%TO.N,Net-(D1401-A)*%
X93980000Y-69850000D03*
%TD*%
D13*
%TO.P,R1101,1*%
%TO.N,3.3V_2*%
X124460000Y-40640000D03*
%TO.P,R1101,2*%
%TO.N,Net-(D1101-A)*%
X124460000Y-48260000D03*
%TD*%
%TO.P,R1603,1*%
%TO.N,3.3V_3*%
X124460000Y-78740000D03*
%TO.P,R1603,2*%
%TO.N,Net-(D1603-A)*%
X124460000Y-86360000D03*
%TD*%
D16*
%TO.P,Q1901,1,E*%
%TO.N,GND*%
X93980000Y-62230000D03*
D17*
%TO.P,Q1901,2,B*%
%TO.N,PWM4*%
X93980000Y-63500000D03*
%TO.P,Q1901,3,C*%
%TO.N,Net-(D1901-K)*%
X93980000Y-64770000D03*
%TD*%
D13*
%TO.P,R802,1*%
%TO.N,3.3V_2*%
X53340000Y-40640000D03*
%TO.P,R802,2*%
%TO.N,Net-(D802-A)*%
X53340000Y-48260000D03*
%TD*%
D14*
%TO.P,D901,1,K*%
%TO.N,Net-(D901-K)*%
X68580000Y-54610000D03*
D15*
%TO.P,D901,2,A*%
%TO.N,Net-(D901-A)*%
X68580000Y-52070000D03*
%TD*%
D16*
%TO.P,Q1001,1,E*%
%TO.N,GND*%
X93980000Y-44450000D03*
D17*
%TO.P,Q1001,2,B*%
%TO.N,PWM2*%
X93980000Y-45720000D03*
%TO.P,Q1001,3,C*%
%TO.N,Net-(D1001-K)*%
X93980000Y-46990000D03*
%TD*%
D13*
%TO.P,R2104,1*%
%TO.N,3.3V_3*%
X139700000Y-78740000D03*
%TO.P,R2104,2*%
%TO.N,Net-(D2104-A)*%
X139700000Y-86360000D03*
%TD*%
D14*
%TO.P,D1404,1,K*%
%TO.N,Net-(D1401-K)*%
X132080000Y-72390000D03*
D15*
%TO.P,D1404,2,A*%
%TO.N,Net-(D1404-A)*%
X132080000Y-69850000D03*
%TD*%
D14*
%TO.P,D502,1,K*%
%TO.N,Net-(D501-K)*%
X100330000Y-36830000D03*
D15*
%TO.P,D502,2,A*%
%TO.N,Net-(D502-A)*%
X100330000Y-34290000D03*
%TD*%
D13*
%TO.P,R803,1*%
%TO.N,3.3V_2*%
X58420000Y-40640000D03*
%TO.P,R803,2*%
%TO.N,Net-(D803-A)*%
X58420000Y-48260000D03*
%TD*%
%TO.P,R902,1*%
%TO.N,3.3V_2*%
X78740000Y-40640000D03*
%TO.P,R902,2*%
%TO.N,Net-(D902-A)*%
X78740000Y-48260000D03*
%TD*%
D14*
%TO.P,D1103,1,K*%
%TO.N,Net-(D1101-K)*%
X132080000Y-54610000D03*
D15*
%TO.P,D1103,2,A*%
%TO.N,Net-(D1103-A)*%
X132080000Y-52070000D03*
%TD*%
D14*
%TO.P,D501,1,K*%
%TO.N,Net-(D501-K)*%
X93980000Y-36830000D03*
D15*
%TO.P,D501,2,A*%
%TO.N,Net-(D501-A)*%
X93980000Y-34290000D03*
%TD*%
D13*
%TO.P,R2102,1*%
%TO.N,3.3V_3*%
X114300000Y-78740000D03*
%TO.P,R2102,2*%
%TO.N,Net-(D2102-A)*%
X114300000Y-86360000D03*
%TD*%
%TO.P,R501,1*%
%TO.N,3.3V_1*%
X99060000Y-22850000D03*
%TO.P,R501,2*%
%TO.N,Net-(D501-A)*%
X99060000Y-30470000D03*
%TD*%
%TO.P,R1901,1*%
%TO.N,3.3V_3*%
X104140000Y-58420000D03*
%TO.P,R1901,2*%
%TO.N,Net-(D1901-A)*%
X104140000Y-66040000D03*
%TD*%
D14*
%TO.P,D1604,1,K*%
%TO.N,Net-(D1601-K)*%
X132080000Y-92710000D03*
D15*
%TO.P,D1604,2,A*%
%TO.N,Net-(D1604-A)*%
X132080000Y-90170000D03*
%TD*%
D13*
%TO.P,R1501,1*%
%TO.N,3.3V_3*%
X48260000Y-78740000D03*
%TO.P,R1501,2*%
%TO.N,Net-(D1501-A)*%
X48260000Y-86360000D03*
%TD*%
%TO.P,R1404,1*%
%TO.N,3.3V_3*%
X134620000Y-58420000D03*
%TO.P,R1404,2*%
%TO.N,Net-(D1404-A)*%
X134620000Y-66040000D03*
%TD*%
D16*
%TO.P,Q1501,1,E*%
%TO.N,GND*%
X43180000Y-82550000D03*
D17*
%TO.P,Q1501,2,B*%
%TO.N,PWM3*%
X43180000Y-83820000D03*
%TO.P,Q1501,3,C*%
%TO.N,Net-(D1501-K)*%
X43180000Y-85090000D03*
%TD*%
D13*
%TO.P,R1001,1*%
%TO.N,3.3V_2*%
X99060000Y-40640000D03*
%TO.P,R1001,2*%
%TO.N,Net-(D1001-A)*%
X99060000Y-48260000D03*
%TD*%
D16*
%TO.P,Q1301,1,E*%
%TO.N,GND*%
X43180000Y-62230000D03*
D17*
%TO.P,Q1301,2,B*%
%TO.N,PWM3*%
X43180000Y-63500000D03*
%TO.P,Q1301,3,C*%
%TO.N,Net-(D1301-K)*%
X43180000Y-64770000D03*
%TD*%
D13*
%TO.P,R1604,1*%
%TO.N,3.3V_3*%
X134620000Y-78740000D03*
%TO.P,R1604,2*%
%TO.N,Net-(D1604-A)*%
X134620000Y-86360000D03*
%TD*%
D14*
%TO.P,D902,1,K*%
%TO.N,Net-(D901-K)*%
X74930000Y-54610000D03*
D15*
%TO.P,D902,2,A*%
%TO.N,Net-(D902-A)*%
X74930000Y-52070000D03*
%TD*%
D16*
%TO.P,Q2101,1,E*%
%TO.N,GND*%
X93980000Y-82550000D03*
D17*
%TO.P,Q2101,2,B*%
%TO.N,PWM4*%
X93980000Y-83820000D03*
%TO.P,Q2101,3,C*%
%TO.N,Net-(D2101-K)*%
X93980000Y-85090000D03*
%TD*%
D14*
%TO.P,D1601,1,K*%
%TO.N,Net-(D1601-K)*%
X93980000Y-92710000D03*
D15*
%TO.P,D1601,2,A*%
%TO.N,Net-(D1601-A)*%
X93980000Y-90170000D03*
%TD*%
D13*
%TO.P,R1904,1*%
%TO.N,3.3V_3*%
X139700000Y-58420000D03*
%TO.P,R1904,2*%
%TO.N,Net-(D1904-A)*%
X139700000Y-66040000D03*
%TD*%
%TO.P,R1401,1*%
%TO.N,3.3V_3*%
X99060000Y-58420000D03*
%TO.P,R1401,2*%
%TO.N,Net-(D1401-A)*%
X99060000Y-66040000D03*
%TD*%
D14*
%TO.P,D1104,1,K*%
%TO.N,Net-(D1101-K)*%
X138430000Y-54610000D03*
D15*
%TO.P,D1104,2,A*%
%TO.N,Net-(D1104-A)*%
X138430000Y-52070000D03*
%TD*%
D16*
%TO.P,Q1601,1,E*%
%TO.N,GND*%
X68580000Y-82550000D03*
D17*
%TO.P,Q1601,2,B*%
%TO.N,PWM3*%
X68580000Y-83820000D03*
%TO.P,Q1601,3,C*%
%TO.N,Net-(D1601-K)*%
X68580000Y-85090000D03*
%TD*%
D14*
%TO.P,D1503,1,K*%
%TO.N,Net-(D1501-K)*%
X68580000Y-92710000D03*
D15*
%TO.P,D1503,2,A*%
%TO.N,Net-(D1503-A)*%
X68580000Y-90170000D03*
%TD*%
D13*
%TO.P,R2002,1*%
%TO.N,3.3V_3*%
X63500000Y-78740000D03*
%TO.P,R2002,2*%
%TO.N,Net-(D2002-A)*%
X63500000Y-86360000D03*
%TD*%
%TO.P,R502,1*%
%TO.N,3.3V_1*%
X104140000Y-22850000D03*
%TO.P,R502,2*%
%TO.N,Net-(D502-A)*%
X104140000Y-30470000D03*
%TD*%
%TO.P,R402,1*%
%TO.N,3.3V_1*%
X78740000Y-22860000D03*
%TO.P,R402,2*%
%TO.N,Net-(D402-A)*%
X78740000Y-30480000D03*
%TD*%
%TO.P,R2001,1*%
%TO.N,3.3V_3*%
X53340000Y-78740000D03*
%TO.P,R2001,2*%
%TO.N,Net-(D2001-A)*%
X53340000Y-86360000D03*
%TD*%
D14*
%TO.P,D402,1,K*%
%TO.N,Net-(D401-K)*%
X74930000Y-36830000D03*
D15*
%TO.P,D402,2,A*%
%TO.N,Net-(D402-A)*%
X74930000Y-34290000D03*
%TD*%
D16*
%TO.P,Q2001,1,E*%
%TO.N,GND*%
X119380000Y-82550000D03*
D17*
%TO.P,Q2001,2,B*%
%TO.N,PWM4*%
X119380000Y-83820000D03*
%TO.P,Q2001,3,C*%
%TO.N,Net-(D2001-K)*%
X119380000Y-85090000D03*
%TD*%
D14*
%TO.P,D1902,1,K*%
%TO.N,Net-(D1901-K)*%
X113030000Y-72390000D03*
D15*
%TO.P,D1902,2,A*%
%TO.N,Net-(D1902-A)*%
X113030000Y-69850000D03*
%TD*%
D20*
%TO.N,3.3V_3*%
X45720000Y-58420000D03*
X45720000Y-78740000D03*
%TD*%
D21*
%TO.N,3.3V_3*%
X45720000Y-78740000D02*
X45720000Y-58420000D01*
%TD*%
M02*
