%TF.GenerationSoftware,KiCad,Pcbnew,7.0.10*%
%TF.CreationDate,2024-01-22T13:45:31-05:00*%
%TF.ProjectId,LED_array,4c45445f-6172-4726-9179-2e6b69636164,rev?*%
%TF.SameCoordinates,Original*%
%TF.FileFunction,Soldermask,Top*%
%TF.FilePolarity,Negative*%
%FSLAX46Y46*%
G04 Gerber Fmt 4.6, Leading zero omitted, Abs format (unit mm)*
G04 Created by KiCad (PCBNEW 7.0.10) date 2024-01-22 13:45:31*
%MOMM*%
%LPD*%
G01*
G04 APERTURE LIST*
%ADD10O,1.400000X1.400000*%
%ADD11C,1.400000*%
%ADD12C,1.600000*%
%ADD13O,1.600000X1.600000*%
%ADD14R,1.800000X1.800000*%
%ADD15C,1.800000*%
%ADD16R,1.500000X1.050000*%
%ADD17O,1.500000X1.050000*%
%ADD18R,1.700000X1.700000*%
%ADD19O,1.700000X1.700000*%
G04 APERTURE END LIST*
D10*
%TO.C,R9*%
X41910000Y-76200000D03*
D11*
X34290000Y-76200000D03*
%TD*%
%TO.C,R6*%
X34290000Y-40640000D03*
D10*
X39370000Y-40640000D03*
%TD*%
D12*
%TO.C,R10*%
X31750000Y-96520000D03*
D13*
X41910000Y-96520000D03*
%TD*%
D12*
%TO.C,R14*%
X40640000Y-81280000D03*
D13*
X30480000Y-81280000D03*
%TD*%
D12*
%TO.C,R13*%
X40640000Y-60960000D03*
D13*
X30480000Y-60960000D03*
%TD*%
D10*
%TO.C,R12*%
X31750000Y-43180000D03*
D11*
X39370000Y-43180000D03*
%TD*%
%TO.C,R11*%
X39370000Y-25400000D03*
D10*
X34290000Y-25400000D03*
%TD*%
D11*
%TO.C,R7*%
X34290000Y-58420000D03*
D10*
X41910000Y-58420000D03*
%TD*%
D11*
%TO.C,R5*%
X34290000Y-38100000D03*
D10*
X34290000Y-33020000D03*
%TD*%
%TO.C,R8*%
X34290000Y-99060000D03*
D11*
X41910000Y-99060000D03*
%TD*%
D12*
%TO.C,R2*%
X48260000Y-105410000D03*
D13*
X40640000Y-105410000D03*
%TD*%
%TO.C,R1103*%
X134620000Y-40640000D03*
X134620000Y-48260000D03*
%TD*%
D12*
%TO.C,R1*%
X66040000Y-105410000D03*
D13*
X58420000Y-105410000D03*
%TD*%
%TO.C,R801*%
X48260000Y-40640000D03*
X48260000Y-48260000D03*
%TD*%
%TO.C,R901*%
X73660000Y-40640000D03*
X73660000Y-48260000D03*
%TD*%
D14*
%TO.C,D504*%
X113030000Y-36830000D03*
D15*
X113030000Y-34290000D03*
%TD*%
D13*
%TO.C,R1602*%
X109220000Y-78740000D03*
X109220000Y-86360000D03*
%TD*%
%TO.C,R1803*%
X78740000Y-58420000D03*
X78740000Y-66040000D03*
%TD*%
D14*
%TO.C,D1504*%
X81280000Y-92710000D03*
D15*
X81280000Y-90170000D03*
%TD*%
D13*
%TO.C,R1403*%
X124460000Y-58420000D03*
X124460000Y-66040000D03*
%TD*%
D14*
%TO.C,D1004*%
X113030000Y-54610000D03*
D15*
X113030000Y-52070000D03*
%TD*%
D13*
%TO.C,R1003*%
X109220000Y-40640000D03*
X109220000Y-48260000D03*
%TD*%
%TO.C,R1802*%
X63500000Y-58420000D03*
X63500000Y-66040000D03*
%TD*%
%TO.C,R2003*%
X78740000Y-78740000D03*
X78740000Y-86360000D03*
%TD*%
D14*
%TO.C,D404*%
X87630000Y-36830000D03*
D15*
X87630000Y-34290000D03*
%TD*%
D14*
%TO.C,D1302*%
X55880000Y-72390000D03*
D15*
X55880000Y-69850000D03*
%TD*%
D14*
%TO.C,D1603*%
X119380000Y-92710000D03*
D15*
X119380000Y-90170000D03*
%TD*%
D14*
%TO.C,D802*%
X49530000Y-54610000D03*
D15*
X49530000Y-52070000D03*
%TD*%
D14*
%TO.C,D804*%
X62230000Y-54610000D03*
D15*
X62230000Y-52070000D03*
%TD*%
D14*
%TO.C,D1904*%
X138430000Y-72390000D03*
D15*
X138430000Y-69850000D03*
%TD*%
D13*
%TO.C,R903*%
X83820000Y-40640000D03*
X83820000Y-48260000D03*
%TD*%
%TO.C,R503*%
X109220000Y-22850000D03*
X109220000Y-30470000D03*
%TD*%
%TO.C,R1902*%
X114300000Y-58430000D03*
X114300000Y-66050000D03*
%TD*%
%TO.C,R1804*%
X88900000Y-58420000D03*
X88900000Y-66040000D03*
%TD*%
%TO.C,R303*%
X58420000Y-22860000D03*
X58420000Y-30480000D03*
%TD*%
D16*
%TO.C,Q1801*%
X119380000Y-62230000D03*
D17*
X119380000Y-63500000D03*
X119380000Y-64770000D03*
%TD*%
D13*
%TO.C,R1303*%
X73660000Y-58420000D03*
X73660000Y-66040000D03*
%TD*%
D12*
%TO.C,R4*%
X58420000Y-101615000D03*
D13*
X66040000Y-101615000D03*
%TD*%
%TO.C,R301*%
X48260000Y-22860000D03*
X48260000Y-30480000D03*
%TD*%
D14*
%TO.C,D302*%
X49530000Y-36830000D03*
D15*
X49530000Y-34290000D03*
%TD*%
D14*
%TO.C,D1804*%
X87630000Y-72390000D03*
D15*
X87630000Y-69850000D03*
%TD*%
D13*
%TO.C,R304*%
X63500000Y-22860000D03*
X63500000Y-30480000D03*
%TD*%
%TO.C,R1903*%
X129540000Y-58420000D03*
X129540000Y-66040000D03*
%TD*%
D14*
%TO.C,D1102*%
X125730000Y-54610000D03*
D15*
X125730000Y-52070000D03*
%TD*%
D13*
%TO.C,R804*%
X63500000Y-40640000D03*
X63500000Y-48260000D03*
%TD*%
%TO.C,R1601*%
X99060000Y-78740000D03*
X99060000Y-86360000D03*
%TD*%
%TO.C,R1304*%
X83820000Y-58420000D03*
X83820000Y-66040000D03*
%TD*%
D14*
%TO.C,D304*%
X62230000Y-36830000D03*
D15*
X62230000Y-34290000D03*
%TD*%
D13*
%TO.C,R1002*%
X104140000Y-40640000D03*
X104140000Y-48260000D03*
%TD*%
D14*
%TO.C,D601*%
X119380000Y-36830000D03*
D15*
X119380000Y-34290000D03*
%TD*%
D13*
%TO.C,R1302*%
X58420000Y-58420000D03*
X58420000Y-66040000D03*
%TD*%
D14*
%TO.C,D904*%
X87630000Y-54610000D03*
D15*
X87630000Y-52070000D03*
%TD*%
D16*
%TO.C,Q901*%
X68580000Y-44450000D03*
D17*
X68580000Y-45720000D03*
X68580000Y-46990000D03*
%TD*%
D14*
%TO.C,D2003*%
X74930000Y-92710000D03*
D15*
X74930000Y-90170000D03*
%TD*%
D13*
%TO.C,R904*%
X88900000Y-40640000D03*
X88900000Y-48260000D03*
%TD*%
%TO.C,R403*%
X83820000Y-22860000D03*
X83820000Y-30480000D03*
%TD*%
%TO.C,R1102*%
X129540000Y-40640000D03*
X129540000Y-48260000D03*
%TD*%
D14*
%TO.C,D1803*%
X74930000Y-72390000D03*
D15*
X74930000Y-69850000D03*
%TD*%
D14*
%TO.C,D1101*%
X119380000Y-54610000D03*
D15*
X119380000Y-52070000D03*
%TD*%
D14*
%TO.C,D401*%
X68580000Y-36830000D03*
D15*
X68580000Y-34290000D03*
%TD*%
D13*
%TO.C,R1301*%
X48260000Y-58420000D03*
X48260000Y-66040000D03*
%TD*%
%TO.C,R601*%
X124460000Y-22850000D03*
X124460000Y-30470000D03*
%TD*%
D14*
%TO.C,D801*%
X43180000Y-54610000D03*
D15*
X43180000Y-52070000D03*
%TD*%
D13*
%TO.C,R1503*%
X73660000Y-78740000D03*
X73660000Y-86360000D03*
%TD*%
D16*
%TO.C,Q501*%
X93980000Y-26660000D03*
D17*
X93980000Y-27930000D03*
X93980000Y-29200000D03*
%TD*%
D16*
%TO.C,Q801*%
X43180000Y-44450000D03*
D17*
X43180000Y-45720000D03*
X43180000Y-46990000D03*
%TD*%
D12*
%TO.C,R3*%
X40620000Y-101615000D03*
D13*
X48240000Y-101615000D03*
%TD*%
D14*
%TO.C,D2103*%
X125730000Y-92710000D03*
D15*
X125730000Y-90170000D03*
%TD*%
D13*
%TO.C,R2101*%
X104140000Y-78740000D03*
X104140000Y-86360000D03*
%TD*%
D16*
%TO.C,Q1401*%
X68580000Y-62230000D03*
D17*
X68580000Y-63500000D03*
X68580000Y-64770000D03*
%TD*%
D14*
%TO.C,D403*%
X81280000Y-36830000D03*
D15*
X81280000Y-34290000D03*
%TD*%
D16*
%TO.C,Q301*%
X43180000Y-26670000D03*
D17*
X43180000Y-27940000D03*
X43180000Y-29210000D03*
%TD*%
D14*
%TO.C,D2002*%
X62230000Y-92710000D03*
D15*
X62230000Y-90170000D03*
%TD*%
D14*
%TO.C,D303*%
X55880000Y-36830000D03*
D15*
X55880000Y-34290000D03*
%TD*%
D14*
%TO.C,D1304*%
X81280000Y-72390000D03*
D15*
X81280000Y-69850000D03*
%TD*%
D14*
%TO.C,D1903*%
X125730000Y-72390000D03*
D15*
X125730000Y-69850000D03*
%TD*%
D13*
%TO.C,R603*%
X134620000Y-22850000D03*
X134620000Y-30470000D03*
%TD*%
D14*
%TO.C,D1802*%
X62230000Y-72390000D03*
D15*
X62230000Y-69850000D03*
%TD*%
D14*
%TO.C,D903*%
X81280000Y-54610000D03*
D15*
X81280000Y-52070000D03*
%TD*%
D14*
%TO.C,D1801*%
X49530000Y-72390000D03*
D15*
X49530000Y-69850000D03*
%TD*%
D14*
%TO.C,D603*%
X132080000Y-36830000D03*
D15*
X132080000Y-34290000D03*
%TD*%
D14*
%TO.C,D1403*%
X119380000Y-72390000D03*
D15*
X119380000Y-69850000D03*
%TD*%
D13*
%TO.C,R401*%
X73660000Y-22860000D03*
X73660000Y-30480000D03*
%TD*%
D14*
%TO.C,D1303*%
X68580000Y-72390000D03*
D15*
X68580000Y-69850000D03*
%TD*%
D14*
%TO.C,D2101*%
X100330000Y-92710000D03*
D15*
X100330000Y-90170000D03*
%TD*%
D13*
%TO.C,R404*%
X88900000Y-22860000D03*
X88900000Y-30480000D03*
%TD*%
D16*
%TO.C,Q601*%
X119380000Y-26660000D03*
D17*
X119380000Y-27930000D03*
X119380000Y-29200000D03*
%TD*%
D13*
%TO.C,R604*%
X139700000Y-22850000D03*
X139700000Y-30470000D03*
%TD*%
D16*
%TO.C,Q1101*%
X119380000Y-44450000D03*
D17*
X119380000Y-45720000D03*
X119380000Y-46990000D03*
%TD*%
D13*
%TO.C,R302*%
X53340000Y-22860000D03*
X53340000Y-30480000D03*
%TD*%
D14*
%TO.C,D1501*%
X43180000Y-92710000D03*
D15*
X43180000Y-90170000D03*
%TD*%
D14*
%TO.C,D1502*%
X55880000Y-92710000D03*
D15*
X55880000Y-90170000D03*
%TD*%
D13*
%TO.C,R1801*%
X53340000Y-58420000D03*
X53340000Y-66040000D03*
%TD*%
D14*
%TO.C,D301*%
X43180000Y-36830000D03*
D15*
X43180000Y-34290000D03*
%TD*%
D14*
%TO.C,D604*%
X138430000Y-36830000D03*
D15*
X138430000Y-34290000D03*
%TD*%
D14*
%TO.C,D1301*%
X43180000Y-72390000D03*
D15*
X43180000Y-69850000D03*
%TD*%
D14*
%TO.C,D503*%
X106680000Y-36830000D03*
D15*
X106680000Y-34290000D03*
%TD*%
D13*
%TO.C,R1104*%
X139700000Y-40640000D03*
X139700000Y-48260000D03*
%TD*%
D14*
%TO.C,D803*%
X55880000Y-54610000D03*
D15*
X55880000Y-52070000D03*
%TD*%
D14*
%TO.C,D1002*%
X100330000Y-54610000D03*
D15*
X100330000Y-52070000D03*
%TD*%
D14*
%TO.C,D1003*%
X106680000Y-54610000D03*
D15*
X106680000Y-52070000D03*
%TD*%
D14*
%TO.C,D602*%
X125730000Y-36830000D03*
D15*
X125730000Y-34290000D03*
%TD*%
D14*
%TO.C,D1602*%
X106680000Y-92710000D03*
D15*
X106680000Y-90170000D03*
%TD*%
D13*
%TO.C,R1504*%
X83820000Y-78740000D03*
X83820000Y-86360000D03*
%TD*%
%TO.C,R1004*%
X114300000Y-40640000D03*
X114300000Y-48260000D03*
%TD*%
%TO.C,R1402*%
X109220000Y-58420000D03*
X109220000Y-66040000D03*
%TD*%
D14*
%TO.C,D1402*%
X106680000Y-72390000D03*
D15*
X106680000Y-69850000D03*
%TD*%
D16*
%TO.C,Q401*%
X68580000Y-26670000D03*
D17*
X68580000Y-27940000D03*
X68580000Y-29210000D03*
%TD*%
D18*
%TO.C,J1*%
X54610000Y-100345000D03*
D19*
X52070000Y-100345000D03*
X54610000Y-102885000D03*
X52070000Y-102885000D03*
X54610000Y-105425000D03*
X52070000Y-105425000D03*
%TD*%
D14*
%TO.C,D1901*%
X100330000Y-72390000D03*
D15*
X100330000Y-69850000D03*
%TD*%
D14*
%TO.C,D1001*%
X93980000Y-54610000D03*
D15*
X93980000Y-52070000D03*
%TD*%
D13*
%TO.C,R602*%
X129540000Y-22850000D03*
X129540000Y-30470000D03*
%TD*%
D14*
%TO.C,D2104*%
X138430000Y-92710000D03*
D15*
X138430000Y-90170000D03*
%TD*%
D13*
%TO.C,R504*%
X114300000Y-22860000D03*
X114300000Y-30480000D03*
%TD*%
D14*
%TO.C,D2004*%
X87630000Y-92710000D03*
D15*
X87630000Y-90170000D03*
%TD*%
D13*
%TO.C,R2004*%
X88900000Y-78740000D03*
X88900000Y-86360000D03*
%TD*%
%TO.C,R2103*%
X129540000Y-78740000D03*
X129540000Y-86360000D03*
%TD*%
D14*
%TO.C,D2001*%
X49530000Y-92710000D03*
D15*
X49530000Y-90170000D03*
%TD*%
D13*
%TO.C,R1502*%
X58420000Y-78740000D03*
X58420000Y-86360000D03*
%TD*%
D14*
%TO.C,D2102*%
X113030000Y-92710000D03*
D15*
X113030000Y-90170000D03*
%TD*%
D14*
%TO.C,D1401*%
X93980000Y-72390000D03*
D15*
X93980000Y-69850000D03*
%TD*%
D13*
%TO.C,R1101*%
X124460000Y-40640000D03*
X124460000Y-48260000D03*
%TD*%
%TO.C,R1603*%
X124460000Y-78740000D03*
X124460000Y-86360000D03*
%TD*%
D16*
%TO.C,Q1901*%
X93980000Y-62230000D03*
D17*
X93980000Y-63500000D03*
X93980000Y-64770000D03*
%TD*%
D13*
%TO.C,R802*%
X53340000Y-40640000D03*
X53340000Y-48260000D03*
%TD*%
D14*
%TO.C,D901*%
X68580000Y-54610000D03*
D15*
X68580000Y-52070000D03*
%TD*%
D16*
%TO.C,Q1001*%
X93980000Y-44450000D03*
D17*
X93980000Y-45720000D03*
X93980000Y-46990000D03*
%TD*%
D13*
%TO.C,R2104*%
X139700000Y-78740000D03*
X139700000Y-86360000D03*
%TD*%
D14*
%TO.C,D1404*%
X132080000Y-72390000D03*
D15*
X132080000Y-69850000D03*
%TD*%
D14*
%TO.C,D502*%
X100330000Y-36830000D03*
D15*
X100330000Y-34290000D03*
%TD*%
D13*
%TO.C,R803*%
X58420000Y-40640000D03*
X58420000Y-48260000D03*
%TD*%
%TO.C,R902*%
X78740000Y-40640000D03*
X78740000Y-48260000D03*
%TD*%
D14*
%TO.C,D1103*%
X132080000Y-54610000D03*
D15*
X132080000Y-52070000D03*
%TD*%
D14*
%TO.C,D501*%
X93980000Y-36830000D03*
D15*
X93980000Y-34290000D03*
%TD*%
D13*
%TO.C,R2102*%
X114300000Y-78740000D03*
X114300000Y-86360000D03*
%TD*%
%TO.C,R501*%
X99060000Y-22850000D03*
X99060000Y-30470000D03*
%TD*%
%TO.C,R1901*%
X104140000Y-58420000D03*
X104140000Y-66040000D03*
%TD*%
D14*
%TO.C,D1604*%
X132080000Y-92710000D03*
D15*
X132080000Y-90170000D03*
%TD*%
D13*
%TO.C,R1501*%
X48260000Y-78740000D03*
X48260000Y-86360000D03*
%TD*%
%TO.C,R1404*%
X134620000Y-58420000D03*
X134620000Y-66040000D03*
%TD*%
D16*
%TO.C,Q1501*%
X43180000Y-82550000D03*
D17*
X43180000Y-83820000D03*
X43180000Y-85090000D03*
%TD*%
D13*
%TO.C,R1001*%
X99060000Y-40640000D03*
X99060000Y-48260000D03*
%TD*%
D16*
%TO.C,Q1301*%
X43180000Y-62230000D03*
D17*
X43180000Y-63500000D03*
X43180000Y-64770000D03*
%TD*%
D13*
%TO.C,R1604*%
X134620000Y-78740000D03*
X134620000Y-86360000D03*
%TD*%
D14*
%TO.C,D902*%
X74930000Y-54610000D03*
D15*
X74930000Y-52070000D03*
%TD*%
D16*
%TO.C,Q2101*%
X93980000Y-82550000D03*
D17*
X93980000Y-83820000D03*
X93980000Y-85090000D03*
%TD*%
D14*
%TO.C,D1601*%
X93980000Y-92710000D03*
D15*
X93980000Y-90170000D03*
%TD*%
D13*
%TO.C,R1904*%
X139700000Y-58420000D03*
X139700000Y-66040000D03*
%TD*%
%TO.C,R1401*%
X99060000Y-58420000D03*
X99060000Y-66040000D03*
%TD*%
D14*
%TO.C,D1104*%
X138430000Y-54610000D03*
D15*
X138430000Y-52070000D03*
%TD*%
D16*
%TO.C,Q1601*%
X68580000Y-82550000D03*
D17*
X68580000Y-83820000D03*
X68580000Y-85090000D03*
%TD*%
D14*
%TO.C,D1503*%
X68580000Y-92710000D03*
D15*
X68580000Y-90170000D03*
%TD*%
D13*
%TO.C,R2002*%
X63500000Y-78740000D03*
X63500000Y-86360000D03*
%TD*%
%TO.C,R502*%
X104140000Y-22850000D03*
X104140000Y-30470000D03*
%TD*%
%TO.C,R402*%
X78740000Y-22860000D03*
X78740000Y-30480000D03*
%TD*%
%TO.C,R2001*%
X53340000Y-78740000D03*
X53340000Y-86360000D03*
%TD*%
D14*
%TO.C,D402*%
X74930000Y-36830000D03*
D15*
X74930000Y-34290000D03*
%TD*%
D16*
%TO.C,Q2001*%
X119380000Y-82550000D03*
D17*
X119380000Y-83820000D03*
X119380000Y-85090000D03*
%TD*%
D14*
%TO.C,D1902*%
X113030000Y-72390000D03*
D15*
X113030000Y-69850000D03*
%TD*%
M02*
